<?xml version="1.0" encoding="UTF-8" standalone="no"?>
<!-- Created with Inkscape (http://www.inkscape.org/) -->

<svg
   xmlns:dc="http://purl.org/dc/elements/1.1/"
   xmlns:cc="http://creativecommons.org/ns#"
   xmlns:rdf="http://www.w3.org/1999/02/22-rdf-syntax-ns#"
   xmlns:svg="http://www.w3.org/2000/svg"
   xmlns="http://www.w3.org/2000/svg"
   xmlns:sodipodi="http://sodipodi.sourceforge.net/DTD/sodipodi-0.dtd"
   xmlns:inkscape="http://www.inkscape.org/namespaces/inkscape"
   width="16px"
   height="16px"
   viewBox="0 0 16 16"
   version="1.1"
   id="SVGRoot"
   inkscape:version="0.92.4 (5da689c313, 2019-01-14)"
   sodipodi:docname="fire.svg">
  <defs
     id="defs815" />
  <sodipodi:namedview
     id="base"
     pagecolor="#ffffff"
     bordercolor="#666666"
     borderopacity="1.0"
     inkscape:pageopacity="0.0"
     inkscape:pageshadow="2"
     inkscape:zoom="11.313709"
     inkscape:cx="7.4318539"
     inkscape:cy="26.767699"
     inkscape:document-units="px"
     inkscape:current-layer="layer7"
     showgrid="false"
     inkscape:window-width="1920"
     inkscape:window-height="1017"
     inkscape:window-x="-8"
     inkscape:window-y="-8"
     inkscape:window-maximized="1"
     inkscape:grid-bbox="true"
     inkscape:pagecheckerboard="true" />
  <metadata
     id="metadata818">
    <rdf:RDF>
      <cc:Work
         rdf:about="">
        <dc:format>image/svg+xml</dc:format>
        <dc:type
           rdf:resource="http://purl.org/dc/dcmitype/StillImage" />
        <dc:title />
      </cc:Work>
    </rdf:RDF>
  </metadata>
  <g
     inkscape:label="bottom"
     inkscape:groupmode="layer"
     id="layer1">
    <circle
       style="fill:#000000;fill-opacity:1;stroke:#ce0000;stroke-width:2;stroke-linecap:square;stroke-linejoin:miter;stroke-miterlimit:4;stroke-dasharray:none;stroke-opacity:1"
       id="path1371"
       cx="8"
       cy="8"
       r="7" />
  </g>
  <g
     inkscape:groupmode="layer"
     id="layer6"
     inkscape:label="L1">
    <path
       style="fill:#ce0000;fill-opacity:1;stroke:none;stroke-width:1px;stroke-linecap:butt;stroke-linejoin:miter;stroke-opacity:1"
       d="m 8.09375,14.53125 -3.828125,-1.375 C 3.2883151,12 3.208225,10.79915 3.15625,9.6875 c -0.048068,-1.0280827 0.5731567,-3.4184733 1.5,-4.59375 0.3517608,1.913547 2.1867494,3.7814625 2.125,3.5625 -0.5425756,-1.9239644 2.3386309,-6.6507901 2.625,-5.84375 -0.2941815,2.4262643 1.731492,4.6174554 1.9375,6.625 1.067335,-1.5502394 2.03125,-1.78125 2.03125,-1.78125 0,0 -0.01182,2.347695 -0.210994,3.433189 -0.247064,1.346475 -0.748744,1.558841 -1.476506,2.473061 0,0 -1,0.9375 -1.03125,0.78125 C 10.625,14.1875 9.5,12.84375 9.5,12.84375 Z"
       id="path1426"
       inkscape:connector-curvature="0"
       sodipodi:nodetypes="ccscscccscscc" />
  </g>
  <g
     inkscape:groupmode="layer"
     id="layer7"
     inkscape:label="L2">
    <path
       style="fill:#000000;fill-opacity:1;stroke:none;stroke-width:1px;stroke-linecap:butt;stroke-linejoin:miter;stroke-opacity:1"
       d="M 5.7997001,13.523747 C 4.4738749,11.976951 5.4579804,8.3544079 5.4579804,8.3544079 L 7.5351066,12.13301 C 8.059191,10.950833 9.8332036,8.906835 9.8332036,8.906835 l 0.1104852,2.894718 c 1.0063092,-0.525601 2.1655152,-0.861786 2.1655152,-0.861786 -0.03256,1.193373 -1.405685,2.636359 -1.966641,3.712311 0,0 0.08839,0 0,0 -0.08839,0 -2.048813,-0.120828 -2.048813,-0.120828 l -0.6499031,-0.04143"
       id="path1429"
       inkscape:connector-curvature="0"
       sodipodi:nodetypes="cccccccscc" />
  </g>
  <g
     inkscape:groupmode="layer"
     id="layer2"
     inkscape:label="top"
     style="display:inline">
    <circle
       style="fill:none;fill-opacity:1;stroke:#ce0000;stroke-width:1;stroke-linecap:square;stroke-linejoin:miter;stroke-miterlimit:4;stroke-dasharray:none;stroke-opacity:1"
       id="path1374"
       cx="8"
       cy="7.9999995"
       r="6.5" />
  </g>
</svg>
