<?xml version="1.0" encoding="UTF-8" standalone="no"?>
<!-- Created with Inkscape (http://www.inkscape.org/) -->

<svg
   xmlns:dc="http://purl.org/dc/elements/1.1/"
   xmlns:cc="http://creativecommons.org/ns#"
   xmlns:rdf="http://www.w3.org/1999/02/22-rdf-syntax-ns#"
   xmlns:svg="http://www.w3.org/2000/svg"
   xmlns="http://www.w3.org/2000/svg"
   xmlns:sodipodi="http://sodipodi.sourceforge.net/DTD/sodipodi-0.dtd"
   xmlns:inkscape="http://www.inkscape.org/namespaces/inkscape"
   width="32"
   height="32"
   viewBox="0 0 32 32"
   version="1.1"
   id="SVGRoot"
   inkscape:version="0.92.4 (5da689c313, 2019-01-14)"
   sodipodi:docname="fire.svg">
  <defs
     id="defs815" />
  <sodipodi:namedview
     id="base"
     pagecolor="#ffffff"
     bordercolor="#666666"
     borderopacity="1.0"
     inkscape:pageopacity="0.0"
     inkscape:pageshadow="2"
     inkscape:zoom="0.7071068"
     inkscape:cx="-381.42803"
     inkscape:cy="27.590781"
     inkscape:document-units="px"
     inkscape:current-layer="layer7"
     showgrid="false"
     inkscape:window-width="1920"
     inkscape:window-height="1017"
     inkscape:window-x="-8"
     inkscape:window-y="-8"
     inkscape:window-maximized="1"
     inkscape:grid-bbox="true"
     inkscape:pagecheckerboard="true" />
  <metadata
     id="metadata818">
    <rdf:RDF>
      <cc:Work
         rdf:about="">
        <dc:format>image/svg+xml</dc:format>
        <dc:type
           rdf:resource="http://purl.org/dc/dcmitype/StillImage" />
        <dc:title />
      </cc:Work>
    </rdf:RDF>
  </metadata>
  <g
     inkscape:label="bottom"
     inkscape:groupmode="layer"
     id="layer1"
     transform="translate(0,16)">
    <circle
       style="fill:#000000;fill-opacity:1;stroke:none;stroke-width:2;stroke-linecap:square;stroke-linejoin:miter;stroke-miterlimit:4;stroke-dasharray:none;stroke-opacity:1"
       id="path1371"
       cx="16.000002"
       cy="4.419308e-06"
       r="16" />
  </g>
  <g
     inkscape:groupmode="layer"
     id="layer6"
     inkscape:label="L1"
     transform="translate(0,16)">
    <path
       style="fill:#ce0000;fill-opacity:1;stroke:none;stroke-width:1px;stroke-linecap:butt;stroke-linejoin:miter;stroke-opacity:1"
       d="M 15.688694,13.320317 6.9266374,10.17313 C 4.6897069,7.5266314 4.5063916,4.7780492 4.3874279,2.233634 4.2774067,-0.11950723 5.6993056,-5.5907854 7.8207248,-8.2808337 8.6258554,-3.9009853 12.825896,0.37441861 12.68456,-0.12675668 11.442679,-4.5304489 18.037367,-15.349511 18.692828,-13.502304 c -0.673343,5.5533883 3.963149,10.5687261 4.434673,15.1637219 2.442985,-3.5482865 4.649255,-4.0770383 4.649255,-4.0770383 0,0 -0.02706,5.3735539 -0.482937,7.8581017 -0.565495,3.0818978 -1.713771,3.5679743 -3.379521,5.6605007 0,0 -2.288865,2.145809 -2.36039,1.788172 C 21.482391,12.53352 18.90741,9.4578598 18.90741,9.4578598 Z"
       id="path1426"
       inkscape:connector-curvature="0"
       sodipodi:nodetypes="ccscscccscscc" />
  </g>
  <g
     inkscape:groupmode="layer"
     id="layer7"
     inkscape:label="L2"
     transform="translate(0,16)">
    <path
       style="fill:#000000;fill-opacity:1;stroke:none;stroke-width:1px;stroke-linecap:butt;stroke-linejoin:miter;stroke-opacity:1"
       d="M 10.437926,11.014279 C 7.403291,7.4738754 9.6557762,-0.81763202 9.6557762,-0.81763202 L 14.410034,7.8310732 C 15.609593,5.125231 19.670065,0.44679817 19.670065,0.44679817 l 0.252886,6.62561503 c 2.303306,-1.2030289 4.956571,-1.9725107 4.956571,-1.9725107 -0.07453,2.7314682 -3.217422,6.0342675 -4.501374,8.4969725 0,0 0.202313,0 0,0 -0.202311,0 -4.689454,-0.276558 -4.689454,-0.276558 l -1.487541,-0.09483"
       id="path1429"
       inkscape:connector-curvature="0"
       sodipodi:nodetypes="cccccccscc" />
  </g>
</svg>
