<?xml version="1.0" encoding="UTF-8" standalone="no"?>
<!-- Created with Inkscape (http://www.inkscape.org/) -->

<svg
   xmlns:osb="http://www.openswatchbook.org/uri/2009/osb"
   xmlns:dc="http://purl.org/dc/elements/1.1/"
   xmlns:cc="http://creativecommons.org/ns#"
   xmlns:rdf="http://www.w3.org/1999/02/22-rdf-syntax-ns#"
   xmlns:svg="http://www.w3.org/2000/svg"
   xmlns="http://www.w3.org/2000/svg"
   xmlns:xlink="http://www.w3.org/1999/xlink"
   xmlns:sodipodi="http://sodipodi.sourceforge.net/DTD/sodipodi-0.dtd"
   xmlns:inkscape="http://www.inkscape.org/namespaces/inkscape"
   width="32"
   height="32"
   viewBox="0 0 32 32"
   version="1.1"
   id="SVGRoot"
   inkscape:version="0.92.4 (5da689c313, 2019-01-14)"
   sodipodi:docname="dying.svg">
  <defs
     id="defs815">
    <linearGradient
       inkscape:collect="always"
       id="linearGradient844">
      <stop
         style="stop-color:#e4a106;stop-opacity:1"
         offset="0"
         id="stop840" />
      <stop
         style="stop-color:#dc4309;stop-opacity:1"
         offset="1"
         id="stop842" />
    </linearGradient>
    <linearGradient
       id="linearGradient4547"
       osb:paint="solid">
      <stop
         style="stop-color:#000000;stop-opacity:1;"
         offset="0"
         id="stop4545" />
    </linearGradient>
    <linearGradient
       inkscape:collect="always"
       xlink:href="#linearGradient844"
       id="linearGradient848"
       x1="14.49569"
       y1="28.199301"
       x2="13.992247"
       y2="18.034897"
       gradientUnits="userSpaceOnUse"
       gradientTransform="matrix(0.84179756,0,0,0.84179756,2.41321,2.0861982)" />
  </defs>
  <sodipodi:namedview
     id="base"
     pagecolor="#ffffff"
     bordercolor="#666666"
     borderopacity="1.0"
     inkscape:pageopacity="0.0"
     inkscape:pageshadow="2"
     inkscape:zoom="11.313708"
     inkscape:cx="28.005238"
     inkscape:cy="-9.0341084"
     inkscape:document-units="px"
     inkscape:current-layer="layer3"
     showgrid="false"
     inkscape:window-width="1920"
     inkscape:window-height="1017"
     inkscape:window-x="-8"
     inkscape:window-y="-8"
     inkscape:window-maximized="1"
     inkscape:grid-bbox="true"
     inkscape:pagecheckerboard="true" />
  <metadata
     id="metadata818">
    <rdf:RDF>
      <cc:Work
         rdf:about="">
        <dc:format>image/svg+xml</dc:format>
        <dc:type
           rdf:resource="http://purl.org/dc/dcmitype/StillImage" />
        <dc:title></dc:title>
      </cc:Work>
    </rdf:RDF>
  </metadata>
  <g
     inkscape:label="bottom"
     inkscape:groupmode="layer"
     id="layer1"
     style="display:inline"
     transform="translate(0,16)">
    <circle
       style="fill:#000000;fill-opacity:1;stroke:none;stroke-width:2;stroke-linecap:square;stroke-linejoin:miter;stroke-miterlimit:4;stroke-dasharray:none;stroke-opacity:1"
       id="path1371"
       cx="16"
       cy="-1.1536744e-06"
       r="16" />
  </g>
  <g
     inkscape:groupmode="layer"
     id="layer3"
     inkscape:label="top">
    <path
       style="fill:#cdcdbc;fill-opacity:1;fill-rule:nonzero;stroke:none;stroke-width:6;stroke-linecap:butt;stroke-linejoin:round;stroke-miterlimit:4;stroke-dasharray:none;stroke-opacity:1"
       d="m 24.704545,12.797631 c 0,2.398064 -0.972007,4.569103 -2.54353,6.140626 -0.785762,0.785761 -1.287351,5.252802 -2.76036,6.877125 -1.382708,1.524746 -2.181234,1.632619 -3.380266,1.632619 -1.199031,0 -1.997557,-0.01412 -3.380265,-1.632619 C 11.215817,24.14819 10.665525,19.724018 9.8797638,18.938256 8.3082411,17.366732 7.3362334,15.195694 7.3362335,12.797631 c 3e-7,-4.7961265 3.8880295,-8.6841551 8.6841555,-8.6841552 4.796127,-3e-7 8.684156,3.8880285 8.684156,8.6841552 z"
       id="path823"
       inkscape:connector-curvature="0"
       sodipodi:nodetypes="sssssssss" />
    <path
       style="fill:#000000;fill-opacity:1;stroke:none;stroke-width:1px;stroke-linecap:butt;stroke-linejoin:miter;stroke-opacity:1"
       d="M 15.125,15.562499 C 15.716169,14.961664 9.5586149,11.797417 8.7500003,12.374999 8.7726977,13.929304 8.474683,15.041666 10.125,16.375 c 1.763191,-0.0054 3.470962,-0.163189 5,-0.812501 z"
       id="path828"
       inkscape:connector-curvature="0"
       sodipodi:nodetypes="cccc" />
    <path
       style="fill:#000000;fill-opacity:1;stroke:none;stroke-width:1px;stroke-linecap:butt;stroke-linejoin:miter;stroke-opacity:1"
       d="m 16.922356,15.566294 c -0.591169,-0.600835 5.566385,-3.765082 6.375,-3.1875 -0.0227,1.554305 0.275317,2.666667 -1.375,4.000001 -1.763191,-0.0054 -3.470962,-0.163189 -5,-0.812501 z"
       id="path828-2"
       inkscape:connector-curvature="0"
       sodipodi:nodetypes="cccc" />
    <path
       style="fill:#000000;fill-opacity:1;stroke:none;stroke-width:1px;stroke-linecap:butt;stroke-linejoin:miter;stroke-opacity:1"
       d="m 10.03125,19.84375 c 0.0625,0.125 3.994233,1.608809 6.093751,1.59375 2.107642,-0.01512 6.09375,-1.6875 6.09375,-1.6875 -1.365613,2.192947 -3.068536,4.101302 -5.9375,4.53125 -2.554893,-0.169279 -4.932529,-1.844829 -6.250001,-4.4375 z"
       id="path845"
       inkscape:connector-curvature="0"
       sodipodi:nodetypes="csccc" />
    <path
       style="fill:#000000;fill-opacity:1;stroke:none;stroke-width:1px;stroke-linecap:butt;stroke-linejoin:miter;stroke-opacity:1"
       d="M 16.031251,16.1875 C 14.723126,17.165086 14.685959,18.217434 14.3125,19.25 14.89648,18.982075 15.525184,18.915411 16,18.15625 c 0.306167,0.773346 1.009396,0.922736 1.718751,1.0625 -0.298377,-1.142478 -0.801145,-2.182761 -1.6875,-3.03125 z"
       id="path847"
       inkscape:connector-curvature="0"
       sodipodi:nodetypes="ccccc" />
    <path
       style="fill:none;stroke:#000000;stroke-width:1px;stroke-linecap:butt;stroke-linejoin:miter;stroke-opacity:1"
       d="m 11.826207,11.367798 c 2.323142,1.018926 2.384232,1.036329 4.298794,3.194701 1.972168,-2.490479 1.919088,-2.475227 4.584485,-3.194701"
       id="path849"
       inkscape:connector-curvature="0"
       sodipodi:nodetypes="ccc" />
    <path
       style="fill:none;stroke:#000000;stroke-width:0.5;stroke-linecap:butt;stroke-linejoin:miter;stroke-miterlimit:4;stroke-dasharray:none;stroke-opacity:1"
       d="m 15.291185,25.370874 1.546796,0.01105"
       id="path851"
       inkscape:connector-curvature="0"
       sodipodi:nodetypes="cc" />
  </g>
</svg>
